<?xml version="1.0" encoding="UTF-8"?>
<svg id="Layer_1" data-name="Layer 1" xmlns="http://www.w3.org/2000/svg" viewBox="105 328 1695 358">
  <defs>
    <style>
      .cls-1 {
        fill: #126ed3;
      }

      .cls-2 {
        fill: #fff;
      }
    </style>
  </defs>
  <path class="cls-2" d="M613.77,501.38c-8.04-3.51-14.34-8.49-18.93-14.95-4.06-5.7-6.32-12.25-6.79-19.63-.1-1.59,1.24-2.94,2.83-2.94h10.57c6.25,0,12.37,3.18,15.07,8.82,1.27,2.65,3.04,5.02,5.3,7.1,4.51,4.16,10.86,6.24,19.02,6.24s15.05-2.04,19.78-6.13c4.74-4.08,7.1-9.35,7.1-15.8,0-5.01-1.47-9.1-4.4-12.25-2.95-3.15-6.6-5.59-10.98-7.31-4.37-1.72-10.42-3.58-18.16-5.59-9.75-2.58-17.67-5.2-23.76-7.85-6.09-2.65-11.28-6.77-15.58-12.36-4.3-5.59-6.45-13.04-6.45-22.36,0-8.6,2.15-16.12,6.45-22.57,4.3-6.45,10.32-11.4,18.06-14.84,7.74-3.44,16.7-5.16,26.88-5.16,14.47,0,26.33,3.62,35.58,10.86,8.47,6.62,13.48,15.5,15.03,26.63.23,1.66-1.13,3.14-2.8,3.14h-21.53c-1.39,0-2.47-1.04-2.75-2.39-.91-4.43-3.39-8.29-7.41-11.58-4.73-3.87-10.96-5.81-18.7-5.81-7.03,0-12.77,1.8-17.2,5.38-4.44,3.58-6.67,8.74-6.67,15.48,0,4.59,1.4,8.35,4.19,11.29,2.8,2.94,6.35,5.27,10.65,6.99,4.29,1.72,10.17,3.58,17.63,5.59,9.89,2.72,17.95,5.45,24.19,8.17,6.24,2.72,11.53,6.91,15.91,12.58,4.37,5.66,6.55,13.23,6.55,22.68,0,7.6-2.04,14.76-6.13,21.5-4.08,6.74-10.04,12.14-17.84,16.23-7.81,4.09-17.03,6.13-27.63,6.13-10.04,0-19.06-1.76-27.08-5.27Z"/>
  <path class="cls-2" d="M739.71,499.45c-9.03-5.09-16.12-12.26-21.28-21.5-5.15-9.24-7.74-19.96-7.74-32.14s2.65-22.72,7.96-32.04c5.3-9.32,12.54-16.49,21.71-21.5,9.17-5.01,19.43-7.52,30.75-7.52s21.57,2.51,30.74,7.52c9.17,5.02,16.41,12.19,21.71,21.5,5.31,9.32,7.96,20,7.96,32.04s-2.73,22.72-8.17,32.03c-5.45,9.32-12.88,16.52-22.26,21.61-9.39,5.09-19.74,7.63-31.07,7.63s-21.28-2.54-30.32-7.63ZM787.76,481.28c5.52-3.01,10-7.52,13.44-13.54,3.44-6.02,5.15-13.33,5.15-21.93s-1.65-15.87-4.95-21.83c-3.3-5.95-7.67-10.43-13.11-13.44-5.45-3.01-11.32-4.52-17.64-4.52s-12.14,1.51-17.52,4.52c-5.38,3.01-9.64,7.49-12.8,13.44-3.16,5.95-4.73,13.23-4.73,21.83,0,12.76,3.25,22.61,9.79,29.56,6.52,6.95,14.72,10.42,24.62,10.42,6.3,0,12.22-1.5,17.74-4.52Z"/>
  <path class="cls-2" d="M989.93,413.77c4.95-9.17,11.69-16.3,20.21-21.39,8.53-5.09,17.95-7.63,28.27-7.63,9.32,0,17.45,1.83,24.4,5.48,6.96,3.66,12.5,8.21,16.67,13.65v-.43c0-9.26,7.51-16.77,16.77-16.77h5.15c1.54,0,2.8,1.25,2.8,2.8v112.88c0,1.54-1.25,2.8-2.8,2.8h-19.13c-1.54,0-2.8-1.25-2.8-2.8v-14.84c-4.16,5.59-9.82,10.25-16.98,13.98-7.18,3.72-15.34,5.59-24.51,5.59-10.19,0-19.5-2.61-27.96-7.85-8.45-5.23-15.16-12.54-20.11-21.93-4.94-9.39-7.42-20.03-7.42-31.93s2.48-22.43,7.42-31.6ZM1074.44,424.52c-3.37-6.02-7.79-10.6-13.23-13.76-5.45-3.15-11.32-4.73-17.64-4.73s-12.18,1.55-17.63,4.62c-5.45,3.09-9.86,7.6-13.23,13.54-3.36,5.95-5.05,13.01-5.05,21.18s1.68,15.34,5.05,21.5c3.36,6.16,7.81,10.86,13.33,14.08,5.52,3.23,11.36,4.84,17.52,4.84s12.19-1.57,17.64-4.73c5.44-3.15,9.85-7.78,13.23-13.87,3.36-6.09,5.05-13.22,5.05-21.39s-1.68-15.27-5.05-21.29Z"/>
  <path class="cls-2" d="M1176.86,389.79c5.22-2.96,11.32-4.62,18.26-4.98,1.58-.08,2.91,1.24,2.91,2.82v22.47s-6.24,0-6.24,0c-9.6,0-16.87,2.44-21.82,7.31-4.95,4.88-7.42,13.33-7.42,25.37v59.56c0,1.54-1.25,2.8-2.8,2.8h-18.93c-1.54,0-2.8-1.25-2.8-2.8v-112.88c0-1.54,1.25-2.8,2.8-2.8h4.95c9.26,0,16.77,7.51,16.77,16.77v.43c3.58-6.02,8.34-10.71,14.3-14.08Z"/>
  <path class="cls-2" d="M954.49,407.75c-4.16-7.6-9.93-13.33-17.31-17.2-7.38-3.87-15.73-5.8-25.04-5.8-.82,0-1.61.08-2.42.12-.09,0-.18-.05-.28-.04-.38.02-.74.08-1.12.11-.95.07-1.89.17-2.81.29-.69.09-1.39.2-2.07.31-1.17.21-2.32.43-3.43.73-.19.05-.38.1-.57.15-2.96.82-5.72,1.95-8.27,3.39-5.95,3.37-10.71,8.07-14.3,14.08v-.43c0-9.26-7.51-16.77-16.77-16.77h-4.95c-1.54,0-2.8,1.25-2.8,2.8v112.88c0,1.55,1.25,2.8,2.8,2.8h18.93c1.54,0,2.8-1.25,2.8-2.8v-59.56c0-.11-.01-.22-.01-.34v-3.53c0-10.61,2.69-18.74,8.06-24.4,5.38-5.66,12.66-8.5,21.83-8.5s16.4,2.83,21.71,8.5c5.31,5.66,7.96,13.79,7.96,24.4v63.42c0,1.55,1.25,2.8,2.8,2.8h18.7c1.54,0,2.8-1.25,2.8-2.8v-67.08c0-10.75-2.07-19.92-6.24-27.52Z"/>
  <path class="cls-1" d="M1341.57,530.32l-24.46-26.46c-6.44,1.86-13.54,2.8-21.28,2.8-13.9,0-26.69-3.26-38.38-9.79-11.69-6.52-20.92-15.62-27.74-27.31-6.8-11.68-10.21-24.83-10.21-39.45s3.41-27.73,10.21-39.34c6.81-11.61,16.05-20.68,27.74-27.2,11.69-6.52,24.47-9.79,38.38-9.79s26.91,3.27,38.59,9.79c11.69,6.52,20.89,15.58,27.63,27.2,6.74,11.61,10.1,24.72,10.1,39.34,0,13.76-2.97,26.2-8.92,37.31-5.95,11.11-14.15,20.03-24.62,26.77l10,10.97c6.52,7.15,5.65,18.33-1.9,24.38l-1.33,1.07c-1.15.92-2.81.79-3.8-.28ZM1251.21,459.24c4.37,8.39,10.43,14.84,18.17,19.35,7.73,4.52,16.56,6.78,26.44,6.78s18.71-2.26,26.45-6.78c7.74-4.52,13.79-10.96,18.16-19.35,4.38-8.38,6.56-18.09,6.56-29.13s-2.18-20.71-6.56-29.02c-4.37-8.31-10.42-14.69-18.16-19.14-7.74-4.44-16.56-6.66-26.45-6.66s-18.71,2.22-26.44,6.66c-7.74,4.44-13.8,10.83-18.17,19.14-4.37,8.31-6.55,17.99-6.55,29.02s2.18,20.75,6.55,29.13Z"/>
  <path class="cls-1" d="M1505.19,403.45v98.9c0,1.54-1.25,2.8-2.8,2.8h-18.93c-1.54,0-2.8-1.25-2.8-2.8v-11.18c-3.87,4.87-8.92,8.7-15.16,11.5-6.22,2.8-12.86,4.19-19.89,4.19-9.32,0-17.66-1.93-25.04-5.8-7.38-3.87-13.19-9.6-17.42-17.2-4.23-7.6-6.35-16.77-6.35-27.52v-66.87c0-1.54,1.25-2.8,2.8-2.8h4.73c9.26,0,16.77,7.51,16.77,16.77v49.24c0,10.6,2.65,18.74,7.95,24.4,5.31,5.66,12.55,8.49,21.72,8.49s16.45-2.83,21.82-8.49c5.37-5.66,8.06-13.8,8.06-24.4v-63.22c0-1.54,1.25-2.8,2.8-2.8h4.95c9.26,0,16.77,7.51,16.77,16.77Z"/>
  <path class="cls-1" d="M1574.31,390.23c7.23-3.65,15.3-5.48,24.19-5.48,10.46,0,19.92,2.51,28.37,7.52,8.46,5.02,15.13,12.15,20,21.39,4.87,9.24,7.32,19.82,7.32,31.71s-2.45,22.54-7.32,31.93c-4.87,9.39-11.58,16.7-20.09,21.93-8.53,5.24-17.95,7.85-28.27,7.85-9.17,0-17.31-1.79-24.41-5.37-7.1-3.58-12.72-8.17-16.87-13.76v14.4c0,1.54-1.25,2.8-2.8,2.8h-18.93c-1.54,0-2.8-1.25-2.8-2.8v-153.51c0-1.54,1.25-2.8,2.8-2.8h4.95c9.26,0,16.77,7.51,16.77,16.77v41.49c4.15-5.73,9.85-10.42,17.09-14.08ZM1624.19,424.2c-3.36-5.95-7.81-10.46-13.32-13.54-5.53-3.08-11.43-4.62-17.75-4.62s-12,1.58-17.52,4.73c-5.52,3.16-9.96,7.74-13.33,13.76-3.36,6.02-5.05,13.12-5.05,21.29s1.68,15.3,5.05,21.39c3.37,6.09,7.82,10.72,13.33,13.87,5.52,3.16,11.36,4.73,17.52,4.73s12.22-1.61,17.75-4.84c5.52-3.22,9.96-7.92,13.32-14.08,3.37-6.16,5.06-13.33,5.06-21.5s-1.68-15.23-5.06-21.18Z"/>
  <path class="cls-1" d="M1785.21,455.05h-88.06c.72,9.46,4.23,17.06,10.54,22.79,6.3,5.74,14.04,8.6,23.22,8.6,12.59,0,21.65-5.02,27.19-15.07.49-.89,1.4-1.48,2.41-1.48h24.8c-3.58,10.89-10.07,19.82-19.46,26.77-9.38,6.95-21.03,10.42-34.94,10.42-11.32,0-21.46-2.54-30.43-7.63-8.96-5.09-15.98-12.26-21.07-21.5-5.09-9.24-7.63-19.96-7.63-32.14s2.48-22.9,7.42-32.15c4.95-9.24,11.9-16.38,20.86-21.39,8.96-5.01,19.24-7.52,30.85-7.52s21.14,2.44,29.89,7.31c8.74,4.88,15.55,11.72,20.42,20.53,4.87,8.82,7.31,18.96,7.31,30.43,0,3.47-.17,6.68-.52,9.63-.16,1.4-1.39,2.41-2.79,2.41ZM1762.95,435.27c-.15-9.03-3.37-16.27-9.68-21.72-6.31-5.44-14.12-8.17-23.44-8.17-8.46,0-15.69,2.69-21.72,8.07-6.02,5.37-9.6,12.65-10.75,21.82h65.58Z"/>
  <g>
    <path class="cls-1" d="M598.18,590.06c3.39-6.12,8.09-10.86,14.12-14.24,6.03-3.37,12.93-5.06,20.7-5.06,10.06,0,18.36,2.36,24.88,7.08,6.53,4.72,10.83,11.27,12.93,19.66h-14.65c-1.4-4.82-4.11-8.62-8.14-11.42-4.04-2.79-9.04-4.19-15.02-4.19-7.77,0-14.05,2.58-18.83,7.73-4.78,5.16-7.17,12.46-7.17,21.9s2.39,16.91,7.17,22.12c4.78,5.2,11.06,7.8,18.83,7.8,5.98,0,10.96-1.35,14.94-4.05,3.98-2.7,6.72-6.55,8.22-11.56h14.65c-2.19,8.09-6.58,14.58-13.15,19.44-6.58,4.87-14.79,7.3-24.66,7.3-7.77,0-14.67-1.68-20.7-5.06-6.03-3.37-10.74-8.14-14.12-14.31-3.39-6.17-5.08-13.39-5.08-21.68s1.69-15.34,5.08-21.46Z"/>
    <path class="cls-1" d="M705.18,544.32v106.96h-13.6v-106.96h13.6Z"/>
    <path class="cls-1" d="M731.48,556.6c-1.79-1.73-2.69-3.85-2.69-6.36s.9-4.62,2.69-6.36,3.98-2.6,6.58-2.6,4.61.87,6.35,2.6c1.74,1.73,2.62,3.86,2.62,6.36s-.87,4.63-2.62,6.36c-1.75,1.73-3.86,2.6-6.35,2.6s-4.78-.87-6.58-2.6ZM744.63,572.07v79.21h-13.6v-79.21h13.6Z"/>
  </g>
  <g>
    <path class="cls-1" d="M437.87,671.39H156.06c-20.34,0-36.88-16.54-36.88-36.88v-255.68c0-20.34,16.54-36.88,36.88-36.88h281.81c20.33,0,36.88,16.54,36.88,36.88v255.68c0,20.33-16.54,36.88-36.88,36.88ZM156.06,366.53c-6.78,0-12.29,5.51-12.29,12.29v255.68c0,6.78,5.52,12.29,12.29,12.29h281.81c6.78,0,12.29-5.51,12.29-12.29v-255.68c0-6.78-5.51-12.29-12.29-12.29H156.06Z"/>
    <path class="cls-1" d="M192.45,610.42c-3.58,0-7.12-1.55-9.55-4.54-4.28-5.27-3.48-13.01,1.79-17.29l57.94-47.08-57.94-47.08c-5.27-4.28-6.07-12.02-1.79-17.29,4.28-5.27,12.02-6.07,17.29-1.79l69.68,56.62c2.87,2.33,4.54,5.84,4.54,9.54s-1.67,7.21-4.54,9.54l-69.68,56.62c-2.28,1.85-5.02,2.75-7.74,2.75Z"/>
    <path class="cls-1" d="M462.46,444.93H131.47c-6.79,0-12.29-5.5-12.29-12.29s5.5-12.29,12.29-12.29h330.99c6.79,0,12.29,5.5,12.29,12.29s-5.5,12.29-12.29,12.29Z"/>
  </g>
</svg>